<?xml version="1.0" encoding="utf-8"?>
<!-- Generator: Adobe Illustrator 19.2.0, SVG Export Plug-In . SVG Version: 6.00 Build 0)  -->
<svg version="1.1" id="Слой_1" xmlns="http://www.w3.org/2000/svg" xmlns:xlink="http://www.w3.org/1999/xlink" x="0px" y="0px"
	 viewBox="0 0 48.1 49.9" style="enable-background:new 0 0 48.1 49.9;" xml:space="preserve">
<style type="text/css">
	.st0{fill:#888A8D;}
	.st1{fill:#9B9DA0;}
</style>
<g>
	<path class="st0" d="M32.9,41.7c-3.4,0-6.1-2.7-6.1-6.1c0-0.4,0.3-0.7,0.7-0.7c0.4,0,0.7,0.3,0.7,0.7c0,2.6,2.1,4.8,4.8,4.8
		c0.4,0,0.7,0.3,0.7,0.7C33.6,41.4,33.3,41.7,32.9,41.7 M33,19c0,0-8.1,12-8.1,16.5s3.6,8.1,8.1,8.1c4.5,0,8.1-3.6,8.1-8.1
		S33,19,33,19"/>
	<path class="st0" d="M21.2,40.9c-4.9,0-9-4-9-9c0-0.4,0.3-0.7,0.7-0.7c0.4,0,0.7,0.3,0.7,0.7c0,4.2,3.4,7.6,7.6,7.6
		c0.4,0,0.7,0.3,0.7,0.7C21.9,40.6,21.6,40.9,21.2,40.9 M29.2,19.9c-3.5-6.7-7.9-13.1-7.9-13.1S8.9,25,8.9,31.9
		c0,6.8,5.5,12.4,12.4,12.4c1.6,0,3-0.3,4.4-0.8c-2.2-2-3.5-4.8-3.5-7.9C22.2,31.5,26.6,24,29.2,19.9"/>
</g>
</svg>
