<?xml version="1.0" encoding="utf-8"?>
<!-- Generator: Adobe Illustrator 19.2.0, SVG Export Plug-In . SVG Version: 6.00 Build 0)  -->
<svg version="1.1" id="Слой_1" xmlns="http://www.w3.org/2000/svg" xmlns:xlink="http://www.w3.org/1999/xlink" x="0px" y="0px"
	 viewBox="0 0 48.1 49.9" style="enable-background:new 0 0 48.1 49.9;" xml:space="preserve">
<style type="text/css">
	.st0{fill:#888A8D;}
	.st1{fill:#9B9DA0;}
</style>
<g>
	<path class="st1" d="M31.2,10.8H17.7c-0.7,0-1.3-0.6-1.3-1.3s0.6-1.3,1.3-1.3h13.5c0.7,0,1.3,0.6,1.3,1.3S31.9,10.8,31.2,10.8"/>
	<path class="st1" d="M27.9,32c-0.8,0-1.5-0.7-1.5-1.5c0-0.8,0.7-1.5,1.5-1.5c0.8,0,1.5,0.7,1.5,1.5C29.3,31.3,28.7,32,27.9,32
		 M23.5,26.8c-0.5,0-0.8-0.4-0.8-0.8s0.4-0.8,0.8-0.8c0.5,0,0.8,0.4,0.8,0.8S24,26.8,23.5,26.8 M20.3,36.9c-1.3,0-2.3-1-2.3-2.3
		c0-1.3,1-2.3,2.3-2.3c1.3,0,2.3,1,2.3,2.3C22.7,35.9,21.6,36.9,20.3,36.9 M20.8,10.4h7.5v10.5h-0.7c-0.2,0-0.3,0-0.5,0h-5
		c-0.2,0-0.3,0-0.5,0h-0.8V10.4z M39.3,38.7c0,0-9-16.4-9.4-16.7V8.4H19.1v13.7c-0.3,0.3-9.3,16.6-9.3,16.6
		c-0.7,1.2-0.1,2.2,1.3,2.2H38C39.4,40.9,40,39.9,39.3,38.7"/>
</g>
</svg>
