<?xml version="1.0" encoding="utf-8"?>
<!-- Generator: Adobe Illustrator 19.2.0, SVG Export Plug-In . SVG Version: 6.00 Build 0)  -->
<svg version="1.1" id="Слой_1" xmlns="http://www.w3.org/2000/svg" xmlns:xlink="http://www.w3.org/1999/xlink" x="0px" y="0px"
	 viewBox="0 0 79.4 74.6" style="enable-background:new 0 0 79.4 74.6;" xml:space="preserve">
<style type="text/css">
	.st0{fill:#888A8D;}
	.st1{fill:#9B9DA0;}
	.st2{clip-path:url(#SVGID_2_);}
	.st3{opacity:0.5;clip-path:url(#SVGID_4_);}
	.st4{clip-path:url(#SVGID_6_);fill:none;stroke:#ED2224;stroke-width:5;}
	.st5{clip-path:url(#SVGID_8_);fill:#CDCCCC;}
	.st6{clip-path:url(#SVGID_10_);fill:none;stroke:#ED2224;stroke-width:5;}
	.st7{fill:#CDCCCC;}
	.st8{fill:#FFC91B;}
	.st9{fill:#EF3D39;}
	.st10{clip-path:url(#SVGID_12_);fill:#CDCCCC;}
	.st11{clip-path:url(#SVGID_14_);fill:#FFFFFF;}
	.st12{clip-path:url(#SVGID_16_);fill:#FFFFFF;}
	.st13{clip-path:url(#SVGID_18_);fill:#888A8D;}
</style>
<g>
	<defs>
		<rect id="SVGID_17_" x="20.3" y="9.9" width="37.9" height="51.6"/>
	</defs>
	<clipPath id="SVGID_2_">
		<use xlink:href="#SVGID_17_"  style="overflow:visible;"/>
	</clipPath>
	<path style="clip-path:url(#SVGID_2_);fill:#888A8D;" d="M54.5,16.7h-4v5h2.8v34.8H25.4V21.7h2.8v-5h-4c-2.1,0-3.8,1.7-3.8,3.8
		v37.3c0,2.1,1.7,3.8,3.8,3.8h30.4c2.1,0,3.8-1.7,3.8-3.8V20.5C58.3,18.4,56.6,16.7,54.5,16.7"/>
	<path style="clip-path:url(#SVGID_2_);fill:#888A8D;" d="M39.4,19.2c-1.8,0-3.2-1.4-3.2-3.2c0-1.8,1.4-3.2,3.2-3.2
		c1.8,0,3.2,1.4,3.2,3.2C42.6,17.8,41.1,19.2,39.4,19.2 M45.3,16.7c0.1-0.4,0.1-0.3,0.1-0.7c0-3.3-2.7-6-6-6c-3.3,0-6.1,2.7-6.1,6
		c0,0.4,0,0.3,0.1,0.7h-3.4v8.8h18.5v-8.8H45.3z"/>
	<path style="clip-path:url(#SVGID_2_);fill:#888A8D;" d="M30.1,51.6c-0.2,0-0.3-0.1-0.4-0.2L27,48.8l0.9-0.9L30,50l3.7-4l0.9,0.8
		l-4.1,4.5C30.4,51.5,30.3,51.6,30.1,51.6L30.1,51.6z"/>
	<path style="clip-path:url(#SVGID_2_);fill:#888A8D;" d="M30.1,42.3c-0.2,0-0.3-0.1-0.4-0.2L27,39.5l0.9-0.9l2.2,2.2l3.7-4l0.9,0.8
		L30.5,42C30.4,42.2,30.3,42.2,30.1,42.3L30.1,42.3z"/>
	<path style="clip-path:url(#SVGID_2_);fill:#888A8D;" d="M30.1,32.9c-0.2,0-0.3-0.1-0.4-0.2L27,30.1l0.9-0.9l2.2,2.2l3.7-4l0.9,0.8
		l-4.1,4.5C30.4,32.9,30.3,32.9,30.1,32.9L30.1,32.9z"/>
</g>
<rect x="27.4" y="52.4" class="st0" width="23.9" height="1.3"/>
<rect x="27.3" y="43.1" class="st0" width="23.9" height="1.3"/>
<rect x="27.2" y="33.8" class="st0" width="23.9" height="1.3"/>
</svg>
