<?xml version="1.0" encoding="utf-8"?>
<!-- Generator: Adobe Illustrator 19.2.0, SVG Export Plug-In . SVG Version: 6.00 Build 0)  -->
<svg version="1.1" id="Слой_1" xmlns="http://www.w3.org/2000/svg" xmlns:xlink="http://www.w3.org/1999/xlink" x="0px" y="0px"
	 viewBox="0 0 79.4 74.6" style="enable-background:new 0 0 79.4 74.6;" xml:space="preserve">
<style type="text/css">
	.st0{fill:#888A8D;}
	.st1{fill:#9B9DA0;}
	.st2{clip-path:url(#SVGID_2_);}
	.st3{opacity:0.5;clip-path:url(#SVGID_4_);}
	.st4{clip-path:url(#SVGID_6_);fill:none;stroke:#ED2224;stroke-width:5;}
	.st5{clip-path:url(#SVGID_8_);fill:#CDCCCC;}
	.st6{clip-path:url(#SVGID_10_);fill:none;stroke:#ED2224;stroke-width:5;}
	.st7{fill:#CDCCCC;}
	.st8{fill:#FFC91B;}
	.st9{fill:#EF3D39;}
	.st10{clip-path:url(#SVGID_12_);fill:#CDCCCC;}
	.st11{clip-path:url(#SVGID_14_);fill:#FFFFFF;}
</style>
<g>
	<defs>
		<rect id="SVGID_13_" x="25.7" y="17.7" width="28" height="37.5"/>
	</defs>
	<clipPath id="SVGID_2_">
		<use xlink:href="#SVGID_13_"  style="overflow:visible;"/>
	</clipPath>
	<path style="clip-path:url(#SVGID_2_);fill:#FFFFFF;" d="M36.2,22.5v-2.1c0-0.1,0.1-0.3,0.2-0.4c0.1-0.1,0.3-0.2,0.5-0.2h5.5
		c0.2,0,0.4,0.1,0.5,0.2c0.1,0.1,0.2,0.2,0.2,0.4v2.1H36.2z M32.7,27.2h13.9c0.4,0,0.8,0.3,0.8,0.8c0,0.4-0.3,0.8-0.8,0.8H32.7
		c-0.4,0-0.8-0.3-0.8-0.8C31.9,27.5,32.3,27.2,32.7,27.2 M32.7,31.2h13.9c0.4,0,0.8,0.3,0.8,0.8c0,0.4-0.3,0.8-0.8,0.8H32.7
		c-0.4,0-0.8-0.3-0.8-0.8C31.9,31.6,32.3,31.2,32.7,31.2 M32.7,35.5h13.9c0.4,0,0.8,0.3,0.8,0.8c0,0.4-0.3,0.8-0.8,0.8H32.7
		c-0.4,0-0.8-0.3-0.8-0.8C31.9,35.9,32.3,35.5,32.7,35.5 M46.6,41.4L46.6,41.4H32.7h0h0l0,0l0,0l0,0l0,0l0,0l0,0v0l0,0l0,0l0,0l0,0
		l0,0v0l0,0l0,0l0,0v0l0,0l0,0l0,0l0,0l0,0l0,0v0l0,0l0,0l0,0l0,0l0,0v0l0,0l0,0l0,0l0,0l0,0l0,0l0,0l0,0l0,0l0,0l0,0l0,0l0,0l0,0
		l0,0l0,0l0,0l0,0l0,0l0,0l0,0l0,0v0l0,0l0,0l0,0l0,0l0,0l0,0l0,0v0l0,0l0,0l0,0v0l0,0l0,0l0,0v0v0v0v0v0l0,0l0,0l0,0l0,0v0l0,0l0,0
		l0,0l0,0l0,0l0,0l0,0l0,0v0l0,0l0,0l0,0l0,0l0,0l0,0l0,0l0,0l0,0l0,0v0l0,0l0,0v0l0,0l0,0l0,0v0l0,0l0,0l0,0l0,0l0,0l0,0l0,0l0,0v0
		l0,0l0,0l0,0l0,0l0,0l0,0l0,0l0,0l0,0l0,0l0,0l0,0l0,0l0,0l0,0l0,0l0,0l0,0l0,0l0,0l0,0l0,0l0,0l0,0h0l0,0h0h13.9h0l0,0h0l0,0l0,0
		l0,0l0,0l0,0l0,0l0,0l0,0l0,0l0,0l0,0l0,0l0,0l0,0l0,0l0,0l0,0l0,0l0,0l0,0l0,0l0,0l0,0l0,0v0l0,0l0,0l0,0l0,0l0,0l0,0l0,0l0,0v0
		l0,0l0,0l0,0v0l0,0l0,0v0l0,0l0,0l0,0l0,0l0,0l0,0l0,0l0,0l0,0l0,0v0l0,0l0,0l0,0l0,0l0,0l0,0l0,0l0,0v0l0,0l0,0l0,0l0,0v0v0v0v0v0
		l0,0l0,0l0,0v0l0,0l0,0l0,0v0l0,0l0,0l0,0l0,0l0,0l0,0l0,0v0l0,0l0,0l0,0l0,0l0,0l0,0l0,0l0,0l0,0l0,0l0,0l0,0l0,0l0,0l0,0l0,0l0,0
		l0,0l0,0l0,0l0,0l0,0v0l0,0l0,0l0,0l0,0l0,0v0l0,0l0,0l0,0l0,0l0,0l0,0v0l0,0l0,0l0,0v0l0,0l0,0l0,0l0,0l0,0v0l0,0l0,0L46.6,41.4
		L46.6,41.4L46.6,41.4L46.6,41.4L46.6,41.4L46.6,41.4z M32.7,44.2h13.9c0.4,0,0.8,0.3,0.8,0.8c0,0.4-0.3,0.8-0.8,0.8H32.7
		c-0.4,0-0.8-0.3-0.8-0.8C31.9,44.5,32.3,44.2,32.7,44.2 M36.9,19.3h5.5c0.4,0,0.7,0.1,0.9,0.3h0c0.3,0.2,0.4,0.5,0.4,0.8v1.5
		c0,0.3-0.2,0.6-0.4,0.8h0c-0.2,0.2-0.6,0.3-0.9,0.3h-5.5c-0.4,0-0.7-0.1-0.9-0.3c-0.3-0.2-0.4-0.5-0.4-0.8v-1.5
		c0-0.3,0.2-0.6,0.4-0.8C36.2,19.4,36.6,19.3,36.9,19.3 M43.4,17.7c0.4,0,0.8,0.1,1.1,0.4c0.3,0.2,0.4,0.5,0.4,0.8v4.7
		c0,0.3-0.2,0.6-0.4,0.8c-0.3,0.2-0.7,0.4-1.1,0.4h-7.5c-0.4,0-0.8-0.1-1.1-0.4c-0.3-0.2-0.4-0.5-0.4-0.8v-4.7
		c0-0.3,0.2-0.6,0.4-0.8c0.3-0.2,0.7-0.4,1.1-0.4H43.4z M27.5,55.2h24.3c1,0,1.8-0.8,1.8-1.8V21.1c0-1-0.8-1.8-1.8-1.8h-6.3v3.3h4.7
		v2.7v26.7H29.1V22.5h4.7v-3.3h-6.3c-1,0-1.8,0.8-1.8,1.8v32.3C25.7,54.4,26.5,55.2,27.5,55.2"/>
</g>
</svg>
