<?xml version="1.0" encoding="utf-8"?>
<!-- Generator: Adobe Illustrator 19.2.0, SVG Export Plug-In . SVG Version: 6.00 Build 0)  -->
<svg version="1.1" id="Слой_1" xmlns="http://www.w3.org/2000/svg" xmlns:xlink="http://www.w3.org/1999/xlink" x="0px" y="0px"
	 viewBox="0 0 79.4 74.6" style="enable-background:new 0 0 79.4 74.6;" xml:space="preserve">
<style type="text/css">
	.st0{fill:#888A8D;}
	.st1{fill:#9B9DA0;}
	.st2{clip-path:url(#SVGID_2_);}
	.st3{opacity:0.5;clip-path:url(#SVGID_4_);}
	.st4{clip-path:url(#SVGID_6_);fill:none;stroke:#ED2224;stroke-width:5;}
	.st5{clip-path:url(#SVGID_8_);fill:#CDCCCC;}
	.st6{clip-path:url(#SVGID_10_);fill:none;stroke:#ED2224;stroke-width:5;}
</style>
<g>
	<defs>
		<rect id="SVGID_1_" x="6.7" y="4.6" width="66.3" height="66.3"/>
	</defs>
	<clipPath id="SVGID_2_">
		<use xlink:href="#SVGID_1_"  style="overflow:visible;"/>
	</clipPath>
	<g class="st2">
		<defs>
			<rect id="SVGID_3_" x="6.7" y="4.6" width="66.3" height="66.3"/>
		</defs>
		<clipPath id="SVGID_4_">
			<use xlink:href="#SVGID_3_"  style="overflow:visible;"/>
		</clipPath>
		<g class="st3">
			<g>
				<defs>
					<rect id="SVGID_5_" x="-2.3" y="-2.4" width="84.3" height="74.3"/>
				</defs>
				<clipPath id="SVGID_6_">
					<use xlink:href="#SVGID_5_"  style="overflow:visible;"/>
				</clipPath>
				<path class="st4" d="M39.8,68.4c16.9,0,30.7-13.7,30.7-30.7c0-16.9-13.7-30.7-30.7-30.7c-8.1,0-15.5,3.2-21,8.3
					C12.9,21,9.2,28.9,9.2,37.7C9.2,54.7,22.9,68.4,39.8,68.4z"/>
			</g>
		</g>
		<g class="st3">
			<g>
				<defs>
					<rect id="SVGID_7_" x="-3.1" y="11.7" width="84.2" height="31.8"/>
				</defs>
				<clipPath id="SVGID_8_">
					<use xlink:href="#SVGID_7_"  style="overflow:visible;"/>
				</clipPath>
				<rect x="30.2" y="37.9" class="st5" width="20.2" height="4.5"/>
				<rect x="21.9" y="37.9" class="st5" width="8.2" height="4.5"/>
				<rect x="51.7" y="37.9" class="st5" width="4.5" height="4.5"/>
				<path class="st5" d="M53.5,36.7c0,0-3.2-3.8,0.6-7.6c3.8-3.8,0-4.4,0-4.4s5.1,0,3.2,7.6C56.7,34.8,54.2,33.5,53.5,36.7"/>
			</g>
		</g>
		<g class="st3">
			<g>
				<defs>
					<rect id="SVGID_9_" x="5.9" y="9.1" width="62.7" height="54.1"/>
				</defs>
				<clipPath id="SVGID_10_">
					<use xlink:href="#SVGID_9_"  style="overflow:visible;"/>
				</clipPath>
				<line class="st6" x1="57.7" y1="60.4" x2="16.7" y2="17.8"/>
			</g>
		</g>
	</g>
</g>
</svg>
