<?xml version="1.0" encoding="utf-8"?>
<!-- Generator: Adobe Illustrator 19.2.0, SVG Export Plug-In . SVG Version: 6.00 Build 0)  -->
<svg version="1.1" id="Слой_1" xmlns="http://www.w3.org/2000/svg" xmlns:xlink="http://www.w3.org/1999/xlink" x="0px" y="0px"
	 viewBox="0 0 79.4 74.6" style="enable-background:new 0 0 79.4 74.6;" xml:space="preserve">
<style type="text/css">
	.st0{fill:#888A8D;}
	.st1{fill:#9B9DA0;}
	.st2{clip-path:url(#SVGID_2_);}
	.st3{opacity:0.5;clip-path:url(#SVGID_4_);}
	.st4{clip-path:url(#SVGID_6_);fill:none;stroke:#ED2224;stroke-width:5;}
	.st5{clip-path:url(#SVGID_8_);fill:#CDCCCC;}
	.st6{clip-path:url(#SVGID_10_);fill:none;stroke:#ED2224;stroke-width:5;}
	.st7{fill:#CDCCCC;}
	.st8{fill:#FFC91B;}
	.st9{fill:#EF3D39;}
	.st10{clip-path:url(#SVGID_12_);fill:#CDCCCC;}
	.st11{clip-path:url(#SVGID_14_);fill:#FFFFFF;}
	.st12{clip-path:url(#SVGID_16_);fill:#FFFFFF;}
</style>
<g>
	<defs>
		<rect id="SVGID_15_" x="24" y="19.3" width="34.3" height="37.5"/>
	</defs>
	<clipPath id="SVGID_2_">
		<use xlink:href="#SVGID_15_"  style="overflow:visible;"/>
	</clipPath>
	<path style="clip-path:url(#SVGID_2_);fill:#FFFFFF;" d="M45.9,50.4h-3.1l6.2,6.2c1,1,2.6-0.5,1.5-1.5L45.9,50.4z M42.3,50.4h-2.2
		v5.5c0,1.4,2.2,1.4,2.2,0V50.4z M31.8,55c-1,1,0.5,2.6,1.5,1.5l6.2-6.2h-3.1L31.8,55z M40.1,22.5h2.2v-2.1c0-1.4-2.2-1.4-2.2,0
		V22.5z M52,31.9c1-1-0.5-2.6-1.5-1.5l-6.8,6.8c-0.4-0.4-4.3-4.3-4.3-4.3c-3.4,3.4-5.5,5.5-8.9,8.9c-1,1,0.5,2.6,1.5,1.5
		c2.9-2.9,4.5-4.5,7.4-7.4l4.3,4.3C47,36.8,48.6,35.3,52,31.9 M54.4,45.7c0,0.2-0.2,0.4-0.4,0.4H28.3c-0.2,0-0.4-0.2-0.4-0.4V27.2
		c0-0.2,0.2-0.4,0.4-0.4H54c0.2,0,0.4,0.2,0.4,0.4V45.7z M58.4,26.1v-2.2c0-0.2-0.2-0.4-0.4-0.4h-2.8h-28h-2.8
		c-0.2,0-0.4,0.2-0.4,0.4v2.2c0,0.4,0.4,0.4,0.6,0.4v20c0,0.2,0,0.4,0.1,0.6c0.1,1.3,1.2,2.3,2.5,2.3h28c1.3,0,2.4-1,2.5-2.3
		c0-0.2,0.1-0.4,0.1-0.6v-20C58,26.5,58.4,26.5,58.4,26.1"/>
</g>
</svg>
